<svg xmlns="http://www.w3.org/2000/svg" width="148.187" height="140.856" viewBox="0 0 148.187 140.856">
  <g id="Group_1" data-name="Group 1" transform="translate(-25.999 -30.007)">
    <g id="Group_1-2" data-name="Group 1" transform="translate(-76.201 -53.62)">
      <g id="image" transform="translate(102.201 117.376)">
        <path id="Path_1" data-name="Path 1" d="M231.047,135.6v42.5a12.274,12.274,0,0,1-12.256,12.3H116.569a12.275,12.275,0,0,1-12.293-12.257v-15.13l30.784-22.4a14.086,14.086,0,0,1,17.513.775L172.511,158.8a14.024,14.024,0,0,0,16.335,1.549Z" transform="translate(-100.975 -86.666)" fill="rgba(206,206,206,0.34)"/>
        <circle id="Ellipse_1" data-name="Ellipse 1" cx="12.124" cy="12.124" r="12.124" transform="translate(66.855 22.431)" fill="#d6cfc4"/>
        <path id="Path_3" data-name="Path 3" d="M235.574,120.5a15.653,15.653,0,0,0-15.645-15.662H117.863A15.654,15.654,0,0,0,102.2,120.485v75.8a15.653,15.653,0,0,0,15.643,15.662h102.07A15.653,15.653,0,0,0,235.574,196.3ZM117.8,111.577H219.98a8.971,8.971,0,0,1,8.856,9.026v31.255l-40.483,23.778a10.668,10.668,0,0,1-12.425-1.182l-19.9-17.409a17.3,17.3,0,0,0-21.656-.977l-25.428,18.489V120.6a8.97,8.97,0,0,1,8.856-9.023Zm102.18,93.634H117.8a8.885,8.885,0,0,1-8.856-8.911V182.911l29.368-21.383a10.645,10.645,0,0,1,13.3.606L171.55,179.54a17.424,17.424,0,0,0,20.241,1.92l37.048-21.79v36.609a8.884,8.884,0,0,1-8.84,8.927h-.019Z" transform="translate(-102.201 -104.84)" fill="#d3d2d1"/>
      </g>
      <g id="magic-wand" transform="translate(114.212 83.62)">
        <g id="Group_2" data-name="Group 2" transform="translate(93.076 74.152)">
          <g id="Group_1-3" data-name="Group 1">
            <path id="Path_1-2" data-name="Path 1" d="M206.484,157.739l-2.163.445a10.358,10.358,0,0,0-8.113,8.113l-.445,2.163a6.077,6.077,0,0,1-11.915,0l-.448-2.16a10.356,10.356,0,0,0-8.113-8.129l-2.163-.43a6.081,6.081,0,0,1,0-11.915l2.163-.445a10.358,10.358,0,0,0,8.113-8.113l.445-2.163a6.035,6.035,0,0,1,5.933-4.868h.032a6.006,6.006,0,0,1,5.949,4.868l.445,2.163a10.379,10.379,0,0,0,8.113,8.113l2.163.445a6.076,6.076,0,0,1,0,11.915Z" transform="translate(-168.263 -130.235)" fill="#d87912"/>
          </g>
        </g>
        <g id="Group_4" data-name="Group 4" transform="translate(16.197 48.405)">
          <g id="Group_3" data-name="Group 3">
            <path id="Path_8" data-name="Path 8" d="M123.361,114.049a3.42,3.42,0,0,0-3.422,3.42h0v8.88a3.421,3.421,0,1,0,6.831.379,3.007,3.007,0,0,0,0-.379v-8.88a3.419,3.419,0,0,0-3.409-3.42Z" transform="translate(-119.934 -114.049)" fill="#d86212"/>
          </g>
        </g>
        <g id="Group_6" data-name="Group 6" transform="translate(16.197 72.309)">
          <g id="Group_5" data-name="Group 5">
            <path id="Path_9" data-name="Path 9" d="M123.361,129.076a3.42,3.42,0,0,0-3.422,3.42h0v8.88a3.421,3.421,0,1,0,6.831.379,3.007,3.007,0,0,0,0-.379V132.5a3.419,3.419,0,0,0-3.409-3.424Z" transform="translate(-119.934 -129.076)" fill="#d86212"/>
          </g>
        </g>
        <g id="Group_8" data-name="Group 8" transform="translate(23.904 64.79)">
          <g id="Group_7" data-name="Group 7">
            <path id="Path_10" data-name="Path 10" d="M136.89,124.355h-8.88a3.421,3.421,0,0,0,0,6.831h8.88a3.421,3.421,0,1,0,.379-6.831A3.007,3.007,0,0,0,136.89,124.355Z" transform="translate(-124.779 -124.349)" fill="#d86212"/>
          </g>
        </g>
        <g id="Group_10" data-name="Group 10" transform="translate(0 64.79)">
          <g id="Group_9" data-name="Group 9">
            <path id="Path_11" data-name="Path 11" d="M121.863,124.355h-8.88a3.421,3.421,0,0,0,0,6.831h8.88a3.421,3.421,0,1,0,.379-6.831,3.009,3.009,0,0,0-.379,0Z" transform="translate(-109.752 -124.349)" fill="#d86212"/>
          </g>
        </g>
        <g id="Group_14" data-name="Group 14" transform="translate(47.241)">
          <g id="Group_13" data-name="Group 13">
            <path id="Path_2" data-name="Path 2" d="M207.824,127.735l-8.526,1.734a17.893,17.893,0,0,0-14.014,14.014l-1.734,8.526a7.182,7.182,0,0,1-14.078,0l-1.734-8.526a17.914,17.914,0,0,0-14.014-14.014l-8.526-1.734a7.185,7.185,0,0,1,0-14.078l8.526-1.734a17.872,17.872,0,0,0,14.014-14.014l1.734-8.526a7.182,7.182,0,0,1,14.078,0l1.734,8.526A17.851,17.851,0,0,0,199.3,111.923l8.526,1.734a7.185,7.185,0,0,1,0,14.078Z" transform="translate(-139.449 -83.62)" fill="#db970f"/>
          </g>
        </g>
      </g>
    </g>
  </g>
</svg>
